#format: frame checksums
#version: 2
#hash: MD5
#software: Lavf62.12.101
#tb 0: 1/25
#media_type 0: video
#codec_id 0: rawvideo
#dimensions 0: 640x360
#sar 0: 1/1
#tb 1: 1/44100
#media_type 1: audio
#codec_id 1: pcm_s16le
#sample_rate 1: 44100
#channel_layout_name 1: stereo
#stream#, dts,        pts, duration,     size, hash
0,          0,          0,        1,   345600, a7f04f4d70df7e6215a975420f188536
1,          0,          0,     2048,     8192, 0829f71740aab1ab98b33eae21dee122
0,          1,          1,        1,   345600, 36be9557fa517759ddc0b066a3f677c6
1,       2048,       2048,     2048,     8192, 0829f71740aab1ab98b33eae21dee122
0,          2,          2,        1,   345600, a9434788979e741d133d231a86e55d6f
1,       4096,       4096,     2048,     8192, 026356b75b9d10e17684427da3b496a9
0,          3,          3,        1,   345600, 5142e9ed6679f14eb3004a625d11dac2
1,       6144,       6144,     2048,     8192, 8935f8f1a18ffca902018f3bb2ec6e5b
0,          4,          4,        1,   345600, 8287f6b6c2c5a55e3730d099df495e82
1,       8192,       8192,     2048,     8192, 850f1945605aebce611bb7a79479beec
0,          5,          5,        1,   345600, 909ec8fd04eab0849f43ec9a16366099
1,      10240,      10240,     2048,     8192, 6ab4b10e074167c248e3dfaa0a620c4b
0,          6,          6,        1,   345600, 487bb32b7848181e909a57604f29df2b
1,      12288,      12288,     2048,     8192, 8a7d7f02b53860401b14fb92ef00d103
0,          7,          7,        1,   345600, 2a2ab6d835fe6b61ed12565e487cc9bf
0,          8,          8,        1,   345600, 0303ebcb1ac9cf0c248940f6a9eb14e3
1,      14336,      14336,     2048,     8192, edfd3b12257c3518c83aa1011ca091b9
0,          9,          9,        1,   345600, c61133a10f3be7361db0494b5fedb0bf
1,      16384,      16384,     2048,     8192, edf8aac7f2d6930ba9ce9a87c4672f9c
0,         10,         10,        1,   345600, 9aeef7e100f2323d8bd3b9264abeec80
1,      18432,      18432,     2048,     8192, 01cf7662323a40cbae0c68fef0c9f367
0,         11,         11,        1,   345600, 93aa553a9261f7aed3cec881a23e9368
1,      20480,      20480,     2048,     8192, f54a545972f623ff9e479bd7cb2c0e3d
0,         12,         12,        1,   345600, 1ea34005d1a710a3ddce31e72d7c500a
1,      22528,      22528,     2048,     8192, 193610fdc7fc9d96161c4ae3c6f2f5f5
0,         13,         13,        1,   345600, 58554895c952000449306a93bc60d0d6
1,      24576,      24576,     2048,     8192, 8d86ba1de034ae30d11fb27e7016ac9c
0,         14,         14,        1,   345600, d1f9323b5011d4d37172c166f1cabe19
0,         15,         15,        1,   345600, 5ee821617b8b334799ad646b7441a68b
1,      26624,      26624,     2048,     8192, 2957d2a1d48e8b10635e90db520c5249
0,         16,         16,        1,   345600, 349ef8b541e6c05cba60544b86f839ca
1,      28672,      28672,     2048,     8192, e74ef88bd9b3f7dbff3e058eaa374e34
0,         17,         17,        1,   345600, 0d80734830e8ad7d47e436b192b1f68e
1,      30720,      30720,     2048,     8192, be9275f5b4de7ec23e3cd2f896df8356
0,         18,         18,        1,   345600, 1c6c871283d805d00c32f929e0adec0b
1,      32768,      32768,     2048,     8192, 6321337d8c160d63f51d4bddd032c4f5
0,         19,         19,        1,   345600, fbf74817e31c6c59d74d0b750e786316
1,      34816,      34816,     2048,     8192, 381030707a2ec80af2b85d92f5d4b926
0,         20,         20,        1,   345600, 6b861f39be169030fc349cd7bcc7162e
1,      36864,      36864,     2048,     8192, 511f98f691a43165f408170e846db4ed
0,         21,         21,        1,   345600, 1fb6f575f723592129c83051976310df
0,         22,         22,        1,   345600, 3981607717321597b3a5a49c81d208d1
1,      38912,      38912,     2048,     8192, 0469500063ab681ca2d8f2a183b41542
0,         23,         23,        1,   345600, 39eda1597a7053db73398a199a93b267
1,      40960,      40960,     2048,     8192, 512e3939f9fbf99ca9acd4bcd0f29752
0,         24,         24,        1,   345600, 43f290037029f18307e4e5d4cf55c972
1,      43008,      43008,     2048,     8192, 7920887a3b8febaaa1be3fcba7af415b
0,         25,         25,        1,   345600, cef53ca22a76735605688fb77e2a9733
1,      45056,      45056,     2048,     8192, 63a433f13db73a928c7302ab0b7ffcfd
0,         26,         26,        1,   345600, 3981607717321597b3a5a49c81d208d1
1,      47104,      47104,     2048,     8192, 9425e126019c65631e8376a214bbf808
0,         27,         27,        1,   345600, d1c1849d04969261e8ecf914de2f5604
1,      49152,      49152,     2048,     8192, d77a65b34c3428ddb1619416d7f1e1a0
0,         28,         28,        1,   345600, 193559987575c45ae7cbc0fb0662d21d
0,         29,         29,        1,   345600, 8d1db49d15603b75a3aecac34bba5637
1,      51200,      51200,     2048,     8192, 99279f9ef467e012b6155792e118a4a5
0,         30,         30,        1,   345600, 3f296428dea1c986ba2d5885fc7c5fda
1,      53248,      53248,     2048,     8192, 5da5fe11840422a23e1c188a0c17f7fb
0,         31,         31,        1,   345600, 7fc8371e7acfe31a6650fb2d05b614e9
1,      55296,      55296,     2048,     8192, eb1d370931ab6b37d53b4a300200e199
0,         32,         32,        1,   345600, 95e69e68c3de090a724349acde3a39d0
1,      57344,      57344,     2048,     8192, 7b42665c1dd966f3e6dd4a0f2ff1f672
0,         33,         33,        1,   345600, 8d1db49d15603b75a3aecac34bba5637
1,      59392,      59392,     2048,     8192, 30286cede1633cd3b5a9a9696070e73d
0,         34,         34,        1,   345600, dce67fec617a6fbc541c4509b5c54574
1,      61440,      61440,     2048,     8192, d82673227a101e00591f65a5e069b145
0,         35,         35,        1,   345600, 354d4511939606877f1fe070ca4390de
1,      63488,      63488,     2048,     8192, 5d2e7e9e8a78c1bc1ec53a74822ccb02
0,         36,         36,        1,   345600, 8315926f3834d86d20b12db607ba52f4
0,         37,         37,        1,   345600, 6d6174de349c5b261789324f5aa73a5e
1,      65536,      65536,     2048,     8192, 97b3bd9b55bf38f149eedc38c677b815
0,         38,         38,        1,   345600, 2bf48d3a0fac7a0cd08710f315248396
1,      67584,      67584,     2048,     8192, 20e9960ae355596dd038143ef0bc2e4f
0,         39,         39,        1,   345600, 354d4511939606877f1fe070ca4390de
1,      69632,      69632,     2048,     8192, b50deeb72b4108cd6de978599958b47f
0,         40,         40,        1,   345600, 8315926f3834d86d20b12db607ba52f4
1,      71680,      71680,     2048,     8192, 8390d201bce5b1f46603903e9651344e
0,         41,         41,        1,   345600, 3f296428dea1c986ba2d5885fc7c5fda
1,      73728,      73728,     2048,     8192, 8d53fd2cdafefee5e3bb566ee4f489cb
0,         42,         42,        1,   345600, b0241e07228116025420cd715839ccba
1,      75776,      75776,     2048,     8192, fe6996fb6681eba3eedd71524f27cd8b
0,         43,         43,        1,   345600, 2d4069adf8b4c005c888c400966a1c9f
0,         44,         44,        1,   345600, 0b76a725d7134431980b4803da24ba1b
1,      77824,      77824,     2048,     8192, c867495323d1d222e6df7d83456eb250
0,         45,         45,        1,   345600, 8ac33f6cc9738eeeff96082847718201
1,      79872,      79872,     2048,     8192, 017901e8ee7ffb34e7833d0a759bccb0
0,         46,         46,        1,   345600, b0241e07228116025420cd715839ccba
1,      81920,      81920,     2048,     8192, 451a8795aec16e383362db4c349bd44a
0,         47,         47,        1,   345600, 2d4069adf8b4c005c888c400966a1c9f
1,      83968,      83968,     2048,     8192, 2229b992abb54e108198612b0962f4c5
0,         48,         48,        1,   345600, 6d6174de349c5b261789324f5aa73a5e
1,      86016,      86016,     2048,     8192, a8ded479a07b5bd0879f5edd7ccc0f54
0,         49,         49,        1,   345600, 18f745aeb5673fafea8dfeba593ca613
1,      88064,      88064,     2048,     8192, ff92a5da62549ed407a27a191dea3de1
0,         50,         50,        1,   345600, c8c61405e6cf165215ad9327d52a3ddc
0,         51,         51,        1,   345600, 81ff2dec4b79ca0d7b426697609bf995
1,      90112,      90112,     2048,     8192, 2e415b323445c5be9d880c79b1e561ea
0,         52,         52,        1,   345600, be7268fb81af08a5f4ac87b04c5bb415
1,      92160,      92160,     2048,     8192, 41b90b95b5e3c4984060a1813b8423f8
0,         53,         53,        1,   345600, 18f745aeb5673fafea8dfeba593ca613
1,      94208,      94208,     2048,     8192, 673d970a7cce5c0ee8125417308878c1
0,         54,         54,        1,   345600, c8c61405e6cf165215ad9327d52a3ddc
1,      96256,      96256,     2048,     8192, 8a7a07c667e3b147216752ca37b8b240
0,         55,         55,        1,   345600, 0b76a725d7134431980b4803da24ba1b
1,      98304,      98304,     2048,     8192, b57e4fcce6b3453d9e9b9d6d5a6ac5b7
0,         56,         56,        1,   345600, 6ad91efd614fb8bf9d4d3e73d018f08e
1,     100352,     100352,     2048,     8192, 6ad62efeb9a6450e2b8fc25a2706d9d1
0,         57,         57,        1,   345600, 2d514d5012b564b5570999107152a925
0,         58,         58,        1,   345600, 343db612acabc53556f1946fec047ba0
1,     102400,     102400,     2048,     8192, 6a734cc3fd65115b2ddf86283469bf7e
0,         59,         59,        1,   345600, 3e5e485d55aded4b0eeb6ad376938093
1,     104448,     104448,     2048,     8192, cecc12e2d0d0db9ab420bacbe4c6fd77
0,         60,         60,        1,   345600, 670196dfabec3515bfbf19cf31bad20e
1,     106496,     106496,     2048,     8192, 60857cf50fa825fa5e9b815b305963e7
0,         61,         61,        1,   345600, 2d514d5012b564b5570999107152a925
1,     108544,     108544,     2048,     8192, 40c80f6528a600a292f8ecc3bf590643
0,         62,         62,        1,   345600, 81ff2dec4b79ca0d7b426697609bf995
1,     110592,     110592,     2048,     8192, cc4a6f0d0025a66b61fd667c5fa60bf4
0,         63,         63,        1,   345600, 0ecda99920dd28b168d104cfd77b9d67
1,     112640,     112640,     2048,     8192, 42cbedf18e4508ccc6922aebaa1e5a75
0,         64,         64,        1,   345600, 0a9b849104b7b2bd856ed651e702204f
0,         65,         65,        1,   345600, 70d6e0f77ac96840abcedef9875681e0
1,     114688,     114688,     2048,     8192, b73ca10fffe14567dc51b8bf16fd9d5e
0,         66,         66,        1,   345600, 984e4387953239eed5750d7db5215a06
1,     116736,     116736,     2048,     8192, a9e5c4c4da0e3b59b16884839bfe354f
0,         67,         67,        1,   345600, ee283bcdfaa27ee45054f3217f2a55e9
1,     118784,     118784,     2048,     8192, ae35fe1b8213df15515943f5adcbd190
0,         68,         68,        1,   345600, 0a9b849104b7b2bd856ed651e702204f
1,     120832,     120832,     2048,     8192, 05a2b8a0b9f3981f7cf32f8b30ddd98d
0,         69,         69,        1,   345600, 343db612acabc53556f1946fec047ba0
1,     122880,     122880,     2048,     8192, d9534edda5ed74789a3d353ddbbf7561
0,         70,         70,        1,   345600, fbfcac8bee22ce54ec538a74ce9c16ba
1,     124928,     124928,     2048,     8192, b020648e2fa6ce2c7b9212f95edbd710
0,         71,         71,        1,   345600, 27fc76da509fb51eb46dd49423928688
1,     126976,     126976,     2048,     8192, 07d50d7af72cfe7bfd5fa894cd91917a
0,         72,         72,        1,   345600, 88f65759e0f354fb92b6d1dfc9512db6
0,         73,         73,        1,   345600, c3b9ec5754b4cdf41ae4c9c34431faeb
1,     129024,     129024,     2048,     8192, 3e09a14fe91b3485a49a429d17bc56e8
0,         74,         74,        1,   345600, fbfcac8bee22ce54ec538a74ce9c16ba
1,     131072,     131072,     2048,     8192, 2540e54d4abeeb945a853eaa789453a3
0,         75,         75,        1,   345600, 27fc76da509fb51eb46dd49423928688
1,     133120,     133120,     2048,     8192, 05114c76459607e6eb5a0d67f16e205a
0,         76,         76,        1,   345600, ba437c77fd4b56c8bceb091de4edc823
1,     135168,     135168,     2048,     8192, 5202e051b95b9a729e44c7040102c44c
0,         77,         77,        1,   345600, ced4ffbb261377c5981e47a20f0cb820
1,     137216,     137216,     2048,     8192, 36823e1346cfc684de91f15db51eca28
0,         78,         78,        1,   345600, 88e0f1bd5e1d45edaba01679aa5af73b
1,     139264,     139264,     2048,     8192, 8d592f8de73551ea0095e437cf919e66
0,         79,         79,        1,   345600, 0f295f5aa6e7f24d667cb13e823cbadc
0,         80,         80,        1,   345600, bc2dd2439c8be964c17d778274c03372
1,     141312,     141312,     2048,     8192, c7861a18d39e98c76c5321611ac12677
0,         81,         81,        1,   345600, ced4ffbb261377c5981e47a20f0cb820
1,     143360,     143360,     2048,     8192, 5a77fef130fa67d6cf5bc7b9c79274dc
0,         82,         82,        1,   345600, 88e0f1bd5e1d45edaba01679aa5af73b
1,     145408,     145408,     2048,     8192, 9754773df0ed3077ade69bf434ce568b
0,         83,         83,        1,   345600, 88f65759e0f354fb92b6d1dfc9512db6
1,     147456,     147456,     2048,     8192, ef361d9628ba171ebb57d7058088811b
0,         84,         84,        1,   345600, 7898ab55c6b27abf0a5078790127ca8f
1,     149504,     149504,     2048,     8192, e7a9ce4c912c1efbeae7ed8776597ac2
0,         85,         85,        1,   345600, c66d3265d7e40c3a0e914e0aae1bd7da
1,     151552,     151552,     2048,     8192, 162145b2e3cd56b5c5128a368a8325e3
0,         86,         86,        1,   345600, b741ca1fb4b5c8ecf57e7774a715a9f6
0,         87,         87,        1,   345600, 8d3dcac1b4666f46637fbb0f6612eadb
1,     153600,     153600,     2048,     8192, d7076e36651ee2796d31b5efa65b8bec
0,         88,         88,        1,   345600, 7898ab55c6b27abf0a5078790127ca8f
1,     155648,     155648,     2048,     8192, 34b513f21f560916cc5a854adf4aa629
0,         89,         89,        1,   345600, 0f295f5aa6e7f24d667cb13e823cbadc
1,     157696,     157696,     2048,     8192, 54be252954fa72801ccea8c1df4e683d
0,         90,         90,        1,   345600, 7618b0456e7408fe287799febdcf7a7d
1,     159744,     159744,     2048,     8192, f0294fd340370691f0f43f3db685f0ec
0,         91,         91,        1,   345600, c0407454b3a85a4d0919b6a7910f4988
1,     161792,     161792,     2048,     8192, bc8670f4c3cf2140d9ae672e7e99bf20
0,         92,         92,        1,   345600, 546451fb8a51d08036157a46984b7690
1,     163840,     163840,     2048,     8192, b35838efbb5597e42c9c9bec3f1163d0
0,         93,         93,        1,   345600, 997350db43cde9a4c4392e801408aa4c
0,         94,         94,        1,   345600, 4c5792887b7c7892d5c0a840e5a44e5f
1,     165888,     165888,     2048,     8192, ccc23849e02d288a3499e5ab08da72ef
0,         95,         95,        1,   345600, 29d1e5bf7f984828e3cbc1f0c20e2a75
1,     167936,     167936,     2048,     8192, cfee4450a7f7610ca8d210cfc077c07b
0,         96,         96,        1,   345600, dff7fe69ce3a9f997971737cbbf6847b
1,     169984,     169984,     2048,     8192, 896d971857e1d567eed781d68288178a
0,         97,         97,        1,   345600, 3d1acf29255aace02b586a45dc73a96c
1,     172032,     172032,     2048,     8192, 977180d08476d1b085cb2b62e6b386ad
0,         98,         98,        1,   345600, 86bd6a15a2c176c9edc11b60a4b13524
1,     174080,     174080,     2048,     8192, c9423e222d586ff5ab08ce979a12d099
0,         99,         99,        1,   345600, 29d1e5bf7f984828e3cbc1f0c20e2a75
1,     176128,     176128,     2048,     8192, 35953826b5e12629e3716a29b9882683
0,        100,        100,        1,   345600, 1fc481dccdeecb91bba2d4369392c76c
0,        101,        101,        1,   345600, ae85baed7bf7232db047eb30eaabc18f
1,     178176,     178176,     2048,     8192, 25d13b6488493517cbe49a966b6d1108
0,        102,        102,        1,   345600, 633ab20f7834a6e406bdf5594db8a0e3
1,     180224,     180224,     2048,     8192, 89610437079fcd69f749ed5bff5509ac
0,        103,        103,        1,   345600, ad82ce042a2d1e3b0d420d90cd21822f
1,     182272,     182272,     2048,     8192, e7ba5338363b6443bce215308d115689
0,        104,        104,        1,   345600, d6e15abf9a9e273cdb8968438ed0b35a
1,     184320,     184320,     2048,     8192, e9273693712ef646b954849e30636224
0,        105,        105,        1,   345600, ae85baed7bf7232db047eb30eaabc18f
1,     186368,     186368,     2048,     8192, ed7b8bc17a8840a3bca7224b96948093
0,        106,        106,        1,   345600, dff7fe69ce3a9f997971737cbbf6847b
1,     188416,     188416,     2048,     8192, 43092cd379082fe92f371d52d3d989ca
0,        107,        107,        1,   345600, 7c71b8c9605b8d9601ca9fb8b02a0bd7
1,     190464,     190464,     2048,     8192, 933b5034c5339e956b62bde0b44edf79
0,        108,        108,        1,   345600, 8141ffd6abf2ec9b9fd756906145bf73
0,        109,        109,        1,   345600, 2037a1f9c4e75e1e4e04ad9b6c76bec2
1,     192512,     192512,     2048,     8192, b011c634cd6cb71c03216495e752e381
0,        110,        110,        1,   345600, 51de740306bbd2090961c730b8402388
1,     194560,     194560,     2048,     8192, 2e88742326c857e73d4f0cf528bc5d8e
0,        111,        111,        1,   345600, 7c71b8c9605b8d9601ca9fb8b02a0bd7
1,     196608,     196608,     2048,     8192, 0ca334aa3619ebc6779458977c3a3b7a
0,        112,        112,        1,   345600, 633ab20f7834a6e406bdf5594db8a0e3
1,     198656,     198656,     2048,     8192, 4959e6dbb9d79fd0b8fed5acd136b720
0,        113,        113,        1,   345600, 4065dd8d67f8ab37ffa1e4104ac82fa3
1,     200704,     200704,     2048,     8192, 1d785e2fc5ab918ba3b56565f3ed2528
0,        114,        114,        1,   345600, 8e622a23bdbf228eaa70d7006b9c76bf
1,     202752,     202752,     2048,     8192, 9678032fd37dc464f681cbbe73e632fd
0,        115,        115,        1,   345600, d51e4b0f45a704799a5cdce1db698253
0,        116,        116,        1,   345600, b64c9bbaa4c968c874fa1f93fbc6932c
1,     204800,     204800,     2048,     8192, e07e6c1f47360b064ee3684ebb767b8e
0,        117,        117,        1,   345600, 4065dd8d67f8ab37ffa1e4104ac82fa3
1,     206848,     206848,     2048,     8192, 764194203cb4f2d946cbce50d3352774
0,        118,        118,        1,   345600, 8141ffd6abf2ec9b9fd756906145bf73
1,     208896,     208896,     2048,     8192, 5a95361f9a57b647e15a4650c375a775
0,        119,        119,        1,   345600, 7a29261ef734caa501fcdab46146f508
1,     210944,     210944,     2048,     8192, 81244a826e1610693df2ad06d7a1197d
0,        120,        120,        1,   345600, 72a9f7dbf086243020184d514ada9c8a
1,     212992,     212992,     2048,     8192, 3bce562dab9432b6420bab8b8c1d0032
0,        121,        121,        1,   345600, 1f9999713b5926be55fcbf11933e66c7
1,     215040,     215040,     2048,     8192, 846af0148cae206755901645fe19a112
0,        122,        122,        1,   345600, 236f5f15fe0cf6db850668db4200dc7b
0,        123,        123,        1,   345600, 7a29261ef734caa501fcdab46146f508
1,     217088,     217088,     2048,     8192, 42505b83eae566ace96cd39f4319ffe6
0,        124,        124,        1,   345600, 8e622a23bdbf228eaa70d7006b9c76bf
1,     219136,     219136,     2048,     8192, 8ce0c10e9842634398150b654d612168
0,        125,        125,        1,   345600, 89e3f967460bba71f019f8eba262165a
1,     221184,     221184,     2048,     8192, d8c90fe6980b9e8b0cdb1629dc68919e
0,        126,        126,        1,   345600, d3f2bb13aa25847ec0b540e1e1eccfdb
1,     223232,     223232,     2048,     8192, 7480da304d0e3b532026d6560577e967
0,        127,        127,        1,   345600, b12711f7b2005a33225befadcbb28638
1,     225280,     225280,     2048,     8192, fc4af5c3fe4749703da3e10a263d04f3
0,        128,        128,        1,   345600, 22856cc82de41904ca1be253544b7c1a
1,     227328,     227328,     2048,     8192, 10f8efa5386bafb3782374aa3138ea92
0,        129,        129,        1,   345600, 89e3f967460bba71f019f8eba262165a
0,        130,        130,        1,   345600, 72a9f7dbf086243020184d514ada9c8a
1,     229376,     229376,     2048,     8192, de38e99a0df46ca5003a37e7ef6e66cd
0,        131,        131,        1,   345600, ea86c972e90b5104a1c111e444e8c85b
1,     231424,     231424,     2048,     8192, d47a7d92703d4b46b62f66923af20573
0,        132,        132,        1,   345600, 530457e0871a4b5deaae3134b4e03a7d
1,     233472,     233472,     2048,     8192, 0497dfe02df70faf0ab0bc6ce169489f
0,        133,        133,        1,   345600, d3f2bb13aa25847ec0b540e1e1eccfdb
1,     235520,     235520,     2048,     8192, 71a3f6d3f01078a04aa7d82771480c54
0,        134,        134,        1,   345600, c631a34ea30c40c01baa14ac83967223
1,     237568,     237568,     2048,     8192, 04c9ed2ece554e2666810387f83e6dc2
0,        135,        135,        1,   345600, be8272271f6da5f7e54baed29711e594
1,     239616,     239616,     2048,     8192, e74d7b4704a04cc97ee9539428d1ed29
0,        136,        136,        1,   345600, 2a6c3ceba9ef9c240c3ce49ac50a5d2a
1,     241664,     241664,     2048,     8192, ec5d851c405d51e3baa8d4c02310ddfe
0,        137,        137,        1,   345600, b0ad49310246a0c87c4f4250b2f460f9
0,        138,        138,        1,   345600, c631a34ea30c40c01baa14ac83967223
1,     243712,     243712,     2048,     8192, bcc1f59d468b36a4e806cdb7d145d8f6
0,        139,        139,        1,   345600, 67a418070aae3fa2208ff00c67c5eeae
1,     245760,     245760,     2048,     8192, 27d38bd978ee15631fd18481fdf84a7a
0,        140,        140,        1,   345600, 2aba87445164a78109066f6852383ccb
1,     247808,     247808,     2048,     8192, 8e484cfefa6316dcb746218dfb1d0a6a
0,        141,        141,        1,   345600, a3510dcf1004d2e07f2eac8f67c20e84
1,     249856,     249856,     2048,     8192, 0f6f25b22e1003e65386358166975717
0,        142,        142,        1,   345600, f26441dcefc280be5e6e09b9b4d0ff35
1,     251904,     251904,     2048,     8192, a1c8407de4b8b813533af47fa72aea87
0,        143,        143,        1,   345600, 14b9970228408ec199e1206c4af4463b
1,     253952,     253952,     2048,     8192, a32380dd12d627826626114be14250f7
0,        144,        144,        1,   345600, 2aba87445164a78109066f6852383ccb
0,        145,        145,        1,   345600, be8272271f6da5f7e54baed29711e594
1,     256000,     256000,     2048,     8192, 10f0b48a73bf7c8f35702d65cb37c198
0,        146,        146,        1,   345600, 7f5fe0aa56908b57c19230981423f837
1,     258048,     258048,     2048,     8192, 3ab654f4df18c5decd388f143a6be9eb
0,        147,        147,        1,   345600, 047c093cfdbc9bd7e876431e649a6db9
1,     260096,     260096,     2048,     8192, f05abaefa0683536e58c5879ba773a90
0,        148,        148,        1,   345600, ba7c5246a820f733afa7ed27dcf40844
1,     262144,     262144,     2048,     8192, fc6b4e5091b57a3c50b10b3779a5f961
0,        149,        149,        1,   345600, 6dedee61fff9f179da0b98a283d22489
1,     264192,     264192,     2048,     8192, 283b014e092004da99cdb7ebaf841cb3
0,        150,        150,        1,   345600, 7f5fe0aa56908b57c19230981423f837
1,     266240,     266240,     2048,     8192, 6363b2dd32f6c730d04fe45e11b52265
0,        151,        151,        1,   345600, a3510dcf1004d2e07f2eac8f67c20e84
0,        152,        152,        1,   345600, 8d331f5dfe456d5f3b16e968afe8fff9
1,     268288,     268288,     2048,     8192, 4b84fd67aaff7aac73b333db4d6724fa
0,        153,        153,        1,   345600, b9bb60fceb35826de8e2cb0282d46895
1,     270336,     270336,     2048,     8192, 26e4bbd2b146cb340876115cebe00302
0,        154,        154,        1,   345600, 273d27c8f99a740fe0c49b86ff1edb08
1,     272384,     272384,     2048,     8192, 09848d9c00edd6688f33008be771cf9e
0,        155,        155,        1,   345600, dd2d13ed073c5e9f990c7be15633e001
1,     274432,     274432,     2048,     8192, eb0708296b8d5e6fab18641c2e330327
0,        156,        156,        1,   345600, 8d331f5dfe456d5f3b16e968afe8fff9
1,     276480,     276480,     2048,     8192, b09f6161745a4a69369a5df68ad99ece
0,        157,        157,        1,   345600, 047c093cfdbc9bd7e876431e649a6db9
1,     278528,     278528,     2048,     8192, 83cfe8763b7d3db6c9456ae33c1ebe10
0,        158,        158,        1,   345600, 387be713e2fd68df8558257894e19105
0,        159,        159,        1,   345600, 1aa5c9496d64c96fc63a3f46739a08fc
1,     280576,     280576,     2048,     8192, d6ae5e820b891af052a99a5ba0074ba3
0,        160,        160,        1,   345600, 64e25b829910220b8d1b3034217e72c9
1,     282624,     282624,     2048,     8192, 3041986c39045df126bf8f40988c8cdc
0,        161,        161,        1,   345600, 5dfc1ea03bd4f248caa2fc4bb57a3105
1,     284672,     284672,     2048,     8192, 6e7af01e872696edf0a48163dddd7c2b
0,        162,        162,        1,   345600, 387be713e2fd68df8558257894e19105
1,     286720,     286720,     2048,     8192, a3332a3de43a865cc7c28ccd5c0db033
0,        163,        163,        1,   345600, b9bb60fceb35826de8e2cb0282d46895
1,     288768,     288768,     2048,     8192, 54780a1c29a2731513fa89445b67aaf2
0,        164,        164,        1,   345600, 1aa5c9496d64c96fc63a3f46739a08fc
1,     290816,     290816,     2048,     8192, 28bbd57512b6dc606d51620b1818cec1
0,        165,        165,        1,   345600, 55138ad8b00f9658776bfb0dd0856381
0,        166,        166,        1,   345600, be1ac5aba5177747ca19f68ec1552bec
1,     292864,     292864,     2048,     8192, a501d7ce43beadea40487078ee919fef
0,        167,        167,        1,   345600, 557143a08cf8aee62efa662f86a83438
1,     294912,     294912,     2048,     8192, e5a0d5e6154d8846a9c7b8cf2b11974a
0,        168,        168,        1,   345600, eef328a0ae1f81ef11e70acfcd6d0a19
1,     296960,     296960,     2048,     8192, fe3f8e525c56fccb69d6d073f5350a76
0,        169,        169,        1,   345600, d5cabf87f761cae16fc0e076b0169d3e
1,     299008,     299008,     2048,     8192, 96740cdcb3a8187b00c2c033d537bbf5
0,        170,        170,        1,   345600, 59db6e77035b3f80aea07b7dcad146cb
1,     301056,     301056,     2048,     8192, 1bd721476f48a38ac7d166a557d0e1f8
0,        171,        171,        1,   345600, ee09d522eb866a6ef2f81d5f761b7125
1,     303104,     303104,     2048,     8192, 733b4ab7b2ff9f970cfa4c6e4b027f4a
0,        172,        172,        1,   345600, ea6186f89571a3246767a5a992e9a1f1
1,     305152,     305152,     2048,     8192, 7678bf637d3cde32a06f732849f620f3
0,        173,        173,        1,   345600, 0b56dd696d8ec8255402eb3bd0e1b7d0
0,        174,        174,        1,   345600, 404f58ac203a2fdf862bde2fea7d53f2
1,     307200,     307200,     2048,     8192, aa478302ade59ccb6b9d13da0e62a242
0,        175,        175,        1,   345600, b79f3920a3213a4a64e545d137576ca4
1,     309248,     309248,     2048,     8192, e4f3d9174d42edd984f6156918674823
0,        176,        176,        1,   345600, 8ad0f86825a5eab85c5aa05f561eb9c8
1,     311296,     311296,     2048,     8192, 18b42b4e389b913a427d393068fb4c89
0,        177,        177,        1,   345600, 17b72e64c7bb37b432bada155b8eb8be
1,     313344,     313344,     2048,     8192, f7bb0a964e4c36f6113a502a6d4a50c3
0,        178,        178,        1,   345600, c866d7d78d46176a4d4cc5bb9ebecdb5
1,     315392,     315392,     2048,     8192, 78800d2fd95ee99a5c4ca26d0f7ea8a8
0,        179,        179,        1,   345600, 6f43b7f376cb70726e0f94b69abfbacc
1,     317440,     317440,     2048,     8192, c721f6f19e37ec52f88f794c8f5fcc71
0,        180,        180,        1,   345600, 30c09de645ca688f0722f2c1486d5be1
0,        181,        181,        1,   345600, 886e5b8ae74c7e9aa88ee821786827a3
1,     319488,     319488,     2048,     8192, 3e6727e2cbce28f51053ed702f807e92
0,        182,        182,        1,   345600, 2ef430ff14e2c2d8313e296610fe2deb
1,     321536,     321536,     2048,     8192, c1a6ab22b39e512806b72ae46dba9b8e
0,        183,        183,        1,   345600, 7454c524ae96e4e943f02d93c0951606
1,     323584,     323584,     2048,     8192, 25b9b6ca88897434c43c69b78663372b
0,        184,        184,        1,   345600, 49ee048d26090cc2327551f0fc8c9c65
1,     325632,     325632,     2048,     8192, e55c18437b2ccc3141b7837d1ab06031
0,        185,        185,        1,   345600, cd1992e14afd86f2aa5e78a1baea81f1
1,     327680,     327680,     2048,     8192, 9f72ca9b4a6a6dd05c07dc42b114f17f
0,        186,        186,        1,   345600, 73cc354b1a88cd729f139a9890626aa8
1,     329728,     329728,     2048,     8192, 235c7f5b31aa28959abcb5e53f2a3ad5
0,        187,        187,        1,   345600, bbb16d8f243c6ff00d440d90228f3582
0,        188,        188,        1,   345600, 295393d2298d318d7e7b578769e6caed
1,     331776,     331776,     2048,     8192, b6fe3888bf10f1feb4e2bca96cc8786f
0,        189,        189,        1,   345600, e9e31b3cc2ef4ef147d990e6ef13835c
1,     333824,     333824,     2048,     8192, 4154f16c7c63df632e48bf304a1d3633
0,        190,        190,        1,   345600, 1f458ff7c2b89c5c855185ed364abcad
1,     335872,     335872,     2048,     8192, ed9c28d9c4c362e828eb75dd6cfc2632
0,        191,        191,        1,   345600, d68d183dbf91c9980a7c7f601ea287bd
1,     337920,     337920,     2048,     8192, 3a51205f3ca862a7f2459eff501a0887
0,        192,        192,        1,   345600, b031066c8d40c2534fa1370fb9042b9d
1,     339968,     339968,     2048,     8192, ba9920260954a365dfeff844906a437a
0,        193,        193,        1,   345600, 0554cbb4f20530167be947a355278d33
1,     342016,     342016,     2048,     8192, 8188797ed22481323819afacdbf6e71f
0,        194,        194,        1,   345600, 6c25cff30262f7f972304dfa706b437f
0,        195,        195,        1,   345600, 242686237e60d07830e8932b339fb367
1,     344064,     344064,     2048,     8192, d4b01cfa2b8c4f3d8bbdb50fe82c66ba
0,        196,        196,        1,   345600, 297f12557111ef1ba0c1797697ef41a1
1,     346112,     346112,     2048,     8192, 71e5466cd0b98e15f99a9f5f25a08356
0,        197,        197,        1,   345600, 0eb5defc8db89178cd09cc15ca4bb54f
1,     348160,     348160,     2048,     8192, 5f3b9a3df780069a74d16e898aa671f3
0,        198,        198,        1,   345600, 0890f7515d96c4449cacc050e7807d3d
1,     350208,     350208,     2048,     8192, 2930a9a5fa2d4afcaf4e962ad4bd3844
0,        199,        199,        1,   345600, 1f63be830ef1e09dffedeea65ee42498
1,     352256,     352256,     2048,     8192, 5f3f9216b61d09cb740c6eae5d963ccd
0,        200,        200,        1,   345600, 49ee5aba8a9f3987751968430ea69141
1,     354304,     354304,     2048,     8192, 335d61319997fe1218db30657c8a3ff3
0,        201,        201,        1,   345600, c59bcb0c23fbf346587dfa88101a4617
0,        202,        202,        1,   345600, 7ba2a5f90090501a6da2f1f2ede82f31
1,     356352,     356352,     2048,     8192, 4071076bfe87c0bcc2d3d057cc0b90e8
0,        203,        203,        1,   345600, 7667e35588ac584ce26a8c41737adb11
1,     358400,     358400,     2048,     8192, ccaffc25cd478cd28577caf681e504d3
0,        204,        204,        1,   345600, 2a299778ef24fc5a77d923595a7bac5e
1,     360448,     360448,     2048,     8192, c14187fbb8be0e4a89b5c662e68ae1be
0,        205,        205,        1,   345600, 657bb0ecd128b5b6e4338375d65b744d
1,     362496,     362496,     2048,     8192, 2cae78ff6abf9ef16a2a83648085cc85
0,        206,        206,        1,   345600, 1071cb2e49dec537ff4e8d3b597a769b
1,     364544,     364544,     2048,     8192, 81b4c0352186480e788597016124d37f
0,        207,        207,        1,   345600, c5cfecb60cf35da3cb2b5d0461efeb89
1,     366592,     366592,     2048,     8192, 3f34ca6397bf4b67d52225897ad80c8e
0,        208,        208,        1,   345600, 5cf3e6db78c882486d42893cc528aa52
1,     368640,     368640,     2048,     8192, 22736f421e6abc4101b9b40c47ac89f3
0,        209,        209,        1,   345600, 8c9de2302dca73679abf9545f6b9dead
0,        210,        210,        1,   345600, a5dbc458398d53e8e6389b8ecb372a4e
1,     370688,     370688,     2048,     8192, 4d24e466c17caea5fef72a951ce3574b
0,        211,        211,        1,   345600, e8d1178ab0d4632308cd5529b63831e7
1,     372736,     372736,     2048,     8192, f25d16dc635bcf0bfb637e9b5be76f4a
0,        212,        212,        1,   345600, 8c81f38f571ae6acf54d3c2acb285534
1,     374784,     374784,     2048,     8192, 1c5435f0fceb2c0dcc7eb81f5d033b0f
0,        213,        213,        1,   345600, 5088ae9927c3137191af1c46d9956220
1,     376832,     376832,     2048,     8192, 6faf823745455499b60ec15ec1ba1c6c
0,        214,        214,        1,   345600, ca86b606d4f0f8c50ae6ed0484364d10
1,     378880,     378880,     2048,     8192, a028ff4fed23ee550c082366d18584b6
0,        215,        215,        1,   345600, 6a1bdfb019bfa90690d4fe06754e8374
1,     380928,     380928,     2048,     8192, 272cf0d2028f1f7bee0b104cb7d15aa4
0,        216,        216,        1,   345600, 235871bf10bb95a0bc93f6e3df163390
0,        217,        217,        1,   345600, 15c379f93b2fa3126fc8cb50e15a0d75
1,     382976,     382976,     2048,     8192, 38ab90965a1da563e7fb6e6211280978
0,        218,        218,        1,   345600, e01649e0699927a5f936db836bc2b9f3
1,     385024,     385024,     2048,     8192, e683d05893b503a24c772c640373e602
0,        219,        219,        1,   345600, 79456edb07661e47c2d573aa29ea87e2
1,     387072,     387072,     2048,     8192, 69d042a32e5dffad4b4b04bb6e9a3141
0,        220,        220,        1,   345600, e7a1e59cf022b32ed7e2137a9705a496
1,     389120,     389120,     2048,     8192, 1a4d36807948c4c89596ea4af7de98c5
0,        221,        221,        1,   345600, 15c379f93b2fa3126fc8cb50e15a0d75
1,     391168,     391168,     2048,     8192, d807584ce4d108a277098b2eee3c40b5
0,        222,        222,        1,   345600, e22049b4ca401a9cb83bd8f172766cb2
1,     393216,     393216,     2048,     8192, e878bcadf2b6130eed2e24da60aae460
0,        223,        223,        1,   345600, c9d18d50be10e48f07bef88c3f0e516d
0,        224,        224,        1,   345600, 49315d5859898c8ab89a78fbd8d356e4
1,     395264,     395264,     2048,     8192, 37cf4711abfbe613f19e066c53a29313
0,        225,        225,        1,   345600, 8b50e927f271e0c4aa881b784340b700
1,     397312,     397312,     2048,     8192, 43c568ea676dd0a99a68306bd91bb057
0,        226,        226,        1,   345600, a603d44f8acf9b46beebac2d75e5e7d4
1,     399360,     399360,     2048,     8192, 5bd9b98cc7d72088e66eac5bd78769fa
0,        227,        227,        1,   345600, c9d18d50be10e48f07bef88c3f0e516d
1,     401408,     401408,     2048,     8192, abd294c688d600d6482edd7b9f8ec4ea
0,        228,        228,        1,   345600, e01649e0699927a5f936db836bc2b9f3
1,     403456,     403456,     2048,     8192, 1e00ca888fd347802253dba2a82c45a0
0,        229,        229,        1,   345600, 8dbbeb9c15712afe366b5944ad18b9a1
1,     405504,     405504,     2048,     8192, 95c8423b1e474b53da83da855a66950c
0,        230,        230,        1,   345600, 0adefc44451c50325c7502ae10c58d4a
0,        231,        231,        1,   345600, 12a51fa891ef17b332687f96494336c8
1,     407552,     407552,     2048,     8192, d85f630db7d1fb510c041014740eb595
0,        232,        232,        1,   345600, 7b7ba6502be29779212650397c902e96
1,     409600,     409600,     2048,     8192, 312f7ef337b206d1ff141a747985a671
0,        233,        233,        1,   345600, 8dbbeb9c15712afe366b5944ad18b9a1
1,     411648,     411648,     2048,     8192, fbcefd6bb044fe792e2569bda1dd9c6a
0,        234,        234,        1,   345600, 49315d5859898c8ab89a78fbd8d356e4
1,     413696,     413696,     2048,     8192, be6345822aa2c37e0862fad72f666634
0,        235,        235,        1,   345600, df941c0fea8421f79927fd202d2976a7
1,     415744,     415744,     2048,     8192, 6ca3452389037ed312821de7441a53a0
0,        236,        236,        1,   345600, 211e1b51738afe33b72b9acf3310a8a7
1,     417792,     417792,     2048,     8192, 5e6c2db899a0c92faac0650323a28371
0,        237,        237,        1,   345600, dfcf44454aa3ecc50c3c0bcb0b20b760
0,        238,        238,        1,   345600, 56e43f07e218744944c97e9e2c45383f
1,     419840,     419840,     2048,     8192, 752df0dcaf9550c963e1cc8bca7c98d5
0,        239,        239,        1,   345600, df941c0fea8421f79927fd202d2976a7
1,     421888,     421888,     2048,     8192, 48d6ff3f91c5adbd753b5c60b6428f69
0,        240,        240,        1,   345600, 0adefc44451c50325c7502ae10c58d4a
1,     423936,     423936,     2048,     8192, a9411f9ae71576f0219326be0ed83160
0,        241,        241,        1,   345600, f971ca447b10b7cbadd39674f5bd7022
1,     425984,     425984,     2048,     8192, 904efa9176c90db16f9a511a6bb2eeb5
0,        242,        242,        1,   345600, 226290a28183b8db42894ea621d8a940
1,     428032,     428032,     2048,     8192, 7b5a24952e5b8b93bab543e248410d9a
0,        243,        243,        1,   345600, bba7d9fcdf281690292805e9256954de
1,     430080,     430080,     2048,     8192, 2e742dc4dc489bb5f99c18694af63400
0,        244,        244,        1,   345600, 65cc9bdec46806f267e17a96cb0bf463
1,     432128,     432128,     2048,     8192, 59082b15ab7e68104eacf56dd7d3b0f8
0,        245,        245,        1,   345600, f971ca447b10b7cbadd39674f5bd7022
0,        246,        246,        1,   345600, 211e1b51738afe33b72b9acf3310a8a7
1,     434176,     434176,     2048,     8192, f2248147ff59e6d80e6234b9c17de105
0,        247,        247,        1,   345600, 3d19b1651515b586d96219e72ad17c2c
1,     436224,     436224,     2048,     8192, 2e270e846ab1cccf3b7613621a56c164
0,        248,        248,        1,   345600, ba0ae1de3cbf7611f58285ca85cd2d86
1,     438272,     438272,     2048,     8192, 4b5a44e1de75acf7320b165f2ac8bca9
0,        249,        249,        1,   345600, 885ba4a59288af5d1a7bfd552152a958
1,     440320,     440320,     2048,     8192, 9929959804a7e901ea05823df0a54699
0,        250,        250,        1,   345600, 94159af655f03637275f5e4c263b7206
1,     442368,     442368,     2048,     8192, 7fb89129a526e2e55279ad8d441e91f7
0,        251,        251,        1,   345600, 3d19b1651515b586d96219e72ad17c2c
1,     444416,     444416,     2048,     8192, 8e27562a9bf88bdb4fb478cf34b5e330
0,        252,        252,        1,   345600, 226290a28183b8db42894ea621d8a940
0,        253,        253,        1,   345600, d5cc7eabe50a82c512c8272aa610b8b9
1,     446464,     446464,     2048,     8192, 8a29a55cf189b7fe481364692150ee28
0,        254,        254,        1,   345600, 65b07410037f40471f5dc4e797810fb4
1,     448512,     448512,     2048,     8192, fdbe28b38aa8882ed53ccc14d3827f99
0,        255,        255,        1,   345600, 133de26754ebbc1a2a3d6b50d3cd5d15
1,     450560,     450560,     2048,     8192, e9afc03784c200a7511eb2b9769342a2
0,        256,        256,        1,   345600, 545d2bc2d4620f16c5ea12a2844dabfd
1,     452608,     452608,     2048,     8192, 45ec216a4d26599b4a18ad7655134402
0,        257,        257,        1,   345600, d5cc7eabe50a82c512c8272aa610b8b9
1,     454656,     454656,     2048,     8192, add3c73a263f3a2061744f0aaa53abb8
0,        258,        258,        1,   345600, ba0ae1de3cbf7611f58285ca85cd2d86
1,     456704,     456704,     2048,     8192, 05986c1c530657322a87f444f897cb21
0,        259,        259,        1,   345600, f7239abb2fdf12d9d6c847968f60bdb9
0,        260,        260,        1,   345600, 4c8dce05f0e16761fa77af4089a7ff8e
1,     458752,     458752,     2048,     8192, e963bd5a3e88c471eabf6166a8578fc1
0,        261,        261,        1,   345600, b4915fcba8aba5249b2ef7b21cbfb96c
1,     460800,     460800,     2048,     8192, 907e4d19ad42e7d595c8631fa3ae5aee
0,        262,        262,        1,   345600, d8d6b7415f4ddb6ea4e617d3e89c68d5
1,     462848,     462848,     2048,     8192, 06ec308442751fad0266c455bda4d5b0
0,        263,        263,        1,   345600, f7239abb2fdf12d9d6c847968f60bdb9
1,     464896,     464896,     2048,     8192, 434c87a5f7ee9c49b9d84349a93c9669
0,        264,        264,        1,   345600, 65b07410037f40471f5dc4e797810fb4
1,     466944,     466944,     2048,     8192, f8fce7bcd3ff387303b293e08ed8eccf
0,        265,        265,        1,   345600, 4c8dce05f0e16761fa77af4089a7ff8e
1,     468992,     468992,     2048,     8192, 02ca5d6c782f47c731b749864b645fd5
0,        266,        266,        1,   345600, 0cf33775ea22fab63ace213b872553b9
0,        267,        267,        1,   345600, 9eaa9affedc3967ec35150f00bca2126
1,     471040,     471040,     2048,     8192, 975a26a6645ee281194995af4389acd6
0,        268,        268,        1,   345600, 6068776eac4ae01188552bef7e7bf726
1,     473088,     473088,     2048,     8192, 8414b68589f3752b7677d25e20a70769
0,        269,        269,        1,   345600, 8a4024c8ddae9b13a554af4cc09f7c31
1,     475136,     475136,     2048,     8192, 1bd468f4b3f2c1ae840ce2466c229782
0,        270,        270,        1,   345600, af17e2c07ef6bd94abf023192650ae21
1,     477184,     477184,     2048,     8192, fca4c48b3ca722cc922e5a127c3848c4
0,        271,        271,        1,   345600, 03e0b09d95593d4546f028e85340d868
1,     479232,     479232,     2048,     8192, 3b2bbd809c573a5f5c07a51216fac835
0,        272,        272,        1,   345600, c91c7ab64e47c394955d45f7f6969d5e
1,     481280,     481280,     2048,     8192, a34edaea9bad5bd6652ffef960f452f0
0,        273,        273,        1,   345600, 906e43d25a73aed5c066bb55ea1a26c1
1,     483328,     483328,     2048,     8192, 2d515fa01fa3b13b08e89bba14cfbca6
0,        274,        274,        1,   345600, bb7a34b10228349a64907aaadcf955a0
0,        275,        275,        1,   345600, 248e1ea9ccf8ef06b728159ccddcd736
1,     485376,     485376,     2048,     8192, dbc31605f528e6309539a66d790ca9bb
0,        276,        276,        1,   345600, 94efcfbc614925562dc134103590b775
1,     487424,     487424,     2048,     8192, 7a4e8d5322acb8d1f293e2f895fb7a3c
0,        277,        277,        1,   345600, ccd4b6103f5cafef18423c77d19289eb
1,     489472,     489472,     2048,     8192, b5df7f553dfc56f069a1ab7cf8b29fb9
0,        278,        278,        1,   345600, c6be09b00fa8b3f403f6a6cc7fcd56bb
1,     491520,     491520,     2048,     8192, 62e00907244b487aa9c331876f90bffe
0,        279,        279,        1,   345600, 46e642ededf3d31378eeecec21275efe
1,     493568,     493568,     2048,     8192, 16793949b3f88f238090dfcdc0a052c5
0,        280,        280,        1,   345600, 5ab47bb00a9b807675d2e315cc1049cb
1,     495616,     495616,     2048,     8192, 98aadd8e439bb2a51cdf4171e1b31d63
0,        281,        281,        1,   345600, 5ba90c6e51297a94f669f82b6586e65b
0,        282,        282,        1,   345600, 4e92e369537b2b17930190b111e1a4ad
1,     497664,     497664,     2048,     8192, c0d3ba68773c8dd8739338a7f5f43ad8
0,        283,        283,        1,   345600, 094ced354237fbf631c43ef2bcf24c8b
1,     499712,     499712,     2048,     8192, 00f075f12c9d1fb2e9440fe9500b308e
0,        284,        284,        1,   345600, 836142ca326ddf7bd937588126955f71
1,     501760,     501760,     2048,     8192, 9628425cbde16b2976af74c612f0fc9b
0,        285,        285,        1,   345600, 5a591d008abe3a5eff831b15852a9f9a
1,     503808,     503808,     2048,     8192, a08544ab0c4b953de0de286fd2633e91
0,        286,        286,        1,   345600, ff5ca32952fc091e7811892435c18794
1,     505856,     505856,     2048,     8192, c6861103312a59e7da8de28f6c31718b
0,        287,        287,        1,   345600, 6baf26eed59cf5326b5b298f3f858530
1,     507904,     507904,     2048,     8192, b0427528a815cff6d76fba33acc39c7d
0,        288,        288,        1,   345600, 248a7cbfd500282d6875729445031629
0,        289,        289,        1,   345600, 900a0bdd77319d5790a27a752cc14c95
1,     509952,     509952,     2048,     8192, 77f967df8b23e076873e8f0a30aae7f1
0,        290,        290,        1,   345600, 4f08ebe4e6dee979a245e3768b59ac2b
1,     512000,     512000,     2048,     8192, 2ecfb67b1075380f39f125d4bce7ac63
0,        291,        291,        1,   345600, e784de8d80853cae61c81b091c01d4bf
1,     514048,     514048,     2048,     8192, cf66b2b80674e34062057317bc7ba327
0,        292,        292,        1,   345600, 323a4c4bc8202459a04cabe7da6b6432
1,     516096,     516096,     2048,     8192, 2e1f1a4ef0a2a918f069ef99a958e7c5
0,        293,        293,        1,   345600, 0ca7784cf5d6fbe00c8b2e20a048379d
1,     518144,     518144,     2048,     8192, f223cdef8e89962860d2f61f182506a1
0,        294,        294,        1,   345600, a60a594980ee7576994738ec67e1bd14
1,     520192,     520192,     2048,     8192, c62db90076a7e1d2623c216bdd1849d7
0,        295,        295,        1,   345600, 6baf26eed59cf5326b5b298f3f858530
0,        296,        296,        1,   345600, 3dcd9346fe2bee66375588114b78141d
1,     522240,     522240,     2048,     8192, 66f1f2f20e9eaca0f008f4fa0a821ef6
0,        297,        297,        1,   345600, f9ef875a91c1d84b93d242f41cc0dd9e
1,     524288,     524288,     2048,     8192, cb397b0fe262bf30bfd3ce6c00156d04
0,        298,        298,        1,   345600, 67001cdce81780110209a067ea9c1dd5
1,     526336,     526336,     2048,     8192, 3c6754561bc8fc8dc664fd39f31fe78e
0,        299,        299,        1,   345600, 8e0c710f8722c803dbcd06ed8fb618f3
1,     528384,     528384,     2048,     8192, 20341ea98d7c308d16b6bb557b5ac778
0,        300,        300,        1,   345600, 195135a7d7fa3f29df4b2f4f2b823608
1,     530432,     530432,     2048,     8192, 4309e110919cf94b3214cab3f63b6646
0,        301,        301,        1,   345600, 7cdda64b18c0b333758348de4d1a1e6d
1,     532480,     532480,     2048,     8192, 09f7db0a6b1ecfef7dfa73ef97811f85
0,        302,        302,        1,   345600, 5b8ed20a32c937ed844e4e2be434bbfc
0,        303,        303,        1,   345600, 7e3d1b2bf621845fbb4995eacd9cc9bc
1,     534528,     534528,     2048,     8192, 124a5497640d2d5565531ed3c6466990
0,        304,        304,        1,   345600, 548c8a8b37b950aa8c1b056ec7196653
1,     536576,     536576,     2048,     8192, 1003918f80585e26fbc94ebbf172f5b9
0,        305,        305,        1,   345600, 1610182cfe0d901361a7ea7320f1eb06
1,     538624,     538624,     2048,     8192, cd0f32b9c5c0d86978c659af9660b7fb
0,        306,        306,        1,   345600, daacfd24681ee8429984b2923f99f534
1,     540672,     540672,     2048,     8192, d6a3c7b1b3b8d0854c1952ae57310100
0,        307,        307,        1,   345600, a55ffd5358fdd0a55f9456c4097ae6c8
1,     542720,     542720,     2048,     8192, ab61a54fb9e606cdacc0dce38e2ac090
0,        308,        308,        1,   345600, 270c21b686a46f758997b131112d7c4c
1,     544768,     544768,     2048,     8192, 48ce908ac36c37f1069e1b68a6b15d2c
0,        309,        309,        1,   345600, 699c778854fe8574e07d42be3b911f91
1,     546816,     546816,     2048,     8192, 7a83b18528569de3ec21635dec58f1ee
0,        310,        310,        1,   345600, 4be46014236f7f5354783ccfb0780ae1
0,        311,        311,        1,   345600, 965fa0f7cfdd8461eea69df68afc7560
1,     548864,     548864,     2048,     8192, 4ba5e282c507077008ea7614ea778ed3
0,        312,        312,        1,   345600, 548c8a8b37b950aa8c1b056ec7196653
1,     550912,     550912,     2048,     8192, 95f6883ad92e44d8eae2e60cbc1a5be3
0,        313,        313,        1,   345600, 73b4b5e116385312fe4de176442a6952
1,     552960,     552960,     2048,     8192, 58fda61a4002790ca2b187bfa5e13ce3
0,        314,        314,        1,   345600, cf991656b48b8d87a1183fa3c8724f11
1,     555008,     555008,     2048,     8192, 79002dbc9fde345f4846687cd02bc7e0
0,        315,        315,        1,   345600, bdd147b6928681c4f5cce0152e1cd5d9
1,     557056,     557056,     2048,     8192, df7a48119334690d6adf73e1f02cf3bd
0,        316,        316,        1,   345600, f0d280e993c09850bedd0bcf12f53795
1,     559104,     559104,     2048,     8192, d0c8a237da131669dccab533a6d0d296
0,        317,        317,        1,   345600, 73b4b5e116385312fe4de176442a6952
0,        318,        318,        1,   345600, cf991656b48b8d87a1183fa3c8724f11
1,     561152,     561152,     2048,     8192, dccc6638280653a8c88f8da636ead67d
0,        319,        319,        1,   345600, 3d04bce3206ec908e8aa5d3ce577f105
1,     563200,     563200,     2048,     8192, 5a60657854f22a41d237bc31427e4985
0,        320,        320,        1,   345600, bdd147b6928681c4f5cce0152e1cd5d9
1,     565248,     565248,     2048,     8192, 7e2145e8c29578dcccb9da954d8feb32
0,        321,        321,        1,   345600, 01f399ce3caad62d8f16cc3cb78589ad
1,     567296,     567296,     2048,     8192, 2cb5a77d3a7d81c8c572a5a2e7a57768
0,        322,        322,        1,   345600, add72edb45586c3db8b459d54d3e1ebd
1,     569344,     569344,     2048,     8192, b9a468fda07185c9e70d7ffbca0eb273
0,        323,        323,        1,   345600, a68001a9c2d76c24c0ab20adc7aefedc
1,     571392,     571392,     2048,     8192, 0c346082d32a1167d4a22ac1058be0e6
0,        324,        324,        1,   345600, b05013b03771b464ddac544c7f60fc72
0,        325,        325,        1,   345600, e6869761b43c364c452634f7afdc2751
1,     573440,     573440,     2048,     8192, 8bb91dcc92f4fea7f39992dfc1431155
0,        326,        326,        1,   345600, 92f98f19000dde092d78d9fb2726ec5b
1,     575488,     575488,     2048,     8192, 217b78c8b659e2e3cf7fa35527e036e3
0,        327,        327,        1,   345600, 416224cd030956b481e7f1993a1fd4a2
1,     577536,     577536,     2048,     8192, 9ea23ee5b5de90cb165b794dcf82d8ad
0,        328,        328,        1,   345600, fb3d571e99c5781bc10afce71f9f374a
1,     579584,     579584,     2048,     8192, b4a3fcaacb2b8f367ef32c1fa52eccad
0,        329,        329,        1,   345600, c4d60bb8a6705182443029672dcc84dd
1,     581632,     581632,     2048,     8192, f3423cd006c8db483cc90b9f673b11ef
0,        330,        330,        1,   345600, 62bf7e324fd32b46dd94a08cf3b4b281
1,     583680,     583680,     2048,     8192, d9518591aabe318c3c77c67567e39439
0,        331,        331,        1,   345600, 5bd158eaf26785e53822035c84011e08
0,        332,        332,        1,   345600, fb3d571e99c5781bc10afce71f9f374a
1,     585728,     585728,     2048,     8192, ebe382eb48964e7bced1928c5d1fbe9f
0,        333,        333,        1,   345600, 1c6abf0fe4530a0db30f07fe1eacfa79
1,     587776,     587776,     2048,     8192, 3a7a53046bdf8223dfd4c899ba43999a
0,        334,        334,        1,   345600, 52c661adfb813d381fbf92560a649163
1,     589824,     589824,     2048,     8192, 77a97d33578e8400f98a3fad6e9882f0
0,        335,        335,        1,   345600, abac6361945bf509bb5d569993ca0742
1,     591872,     591872,     2048,     8192, 850ae770e6915ff9c2538ad0a61c5196
0,        336,        336,        1,   345600, 85f062b4441f893abc84774c93887173
1,     593920,     593920,     2048,     8192, 9ee7e0096ed24a326ef2a9c1318228c8
0,        337,        337,        1,   345600, e5c44abb9ad0a59591f5a35584f5cba4
1,     595968,     595968,     2048,     8192, cd63b08ebd8eb84399dd82d31033ebb7
0,        338,        338,        1,   345600, 52c661adfb813d381fbf92560a649163
0,        339,        339,        1,   345600, 67534e55ead7de0d96b3746e25e6bf78
1,     598016,     598016,     2048,     8192, 781e96aaef4e7e6d5572a661f080c391
0,        340,        340,        1,   345600, f74527a580b38c3531f0ce4a924caa39
1,     600064,     600064,     2048,     8192, b1b3ebf76f62c9ef25c0ee6636fcd6ab
0,        341,        341,        1,   345600, 18bb0f698437b87ec88f1a1ae6b2c0c7
1,     602112,     602112,     2048,     8192, 73136c970426dadbf42aceb9495ea14e
0,        342,        342,        1,   345600, dd8dff29fe29cde8968225b2746bfb78
1,     604160,     604160,     2048,     8192, 1ad4c025ffa90ec506a5e7b7f0fa64e5
0,        343,        343,        1,   345600, d2af0a519a75827d119393cca67a33c2
1,     606208,     606208,     2048,     8192, 5ce95dddb4d26d269af05d2213a43af8
0,        344,        344,        1,   345600, f74527a580b38c3531f0ce4a924caa39
1,     608256,     608256,     2048,     8192, 07d1eb22bbbce4209339284f74049165
0,        345,        345,        1,   345600, daaec29ca6e71a3e09204c9d847f6907
1,     610304,     610304,     2048,     8192, 0249c904bda57f46920e3615ec745d61
0,        346,        346,        1,   345600, 0b926605cf02689657dc9b021d279625
0,        347,        347,        1,   345600, cdfe8ba9b1938026ec3d3b267e82a733
1,     612352,     612352,     2048,     8192, 62503f5bd5bd8e9308bf561358c684f9
0,        348,        348,        1,   345600, f938831a5ff59607f824730eeb650b81
1,     614400,     614400,     2048,     8192, f045f7df018906fbb64b3f36df3ff402
0,        349,        349,        1,   345600, acb8959cbd3dc0743a2dbbabb8f9bc5f
1,     616448,     616448,     2048,     8192, 9a2bde47c06544343d7c619ab73e03bf
0,        350,        350,        1,   345600, 0b926605cf02689657dc9b021d279625
1,     618496,     618496,     2048,     8192, f2cd9e8fa4e59f459e850fb95bef5859
0,        351,        351,        1,   345600, 18bb0f698437b87ec88f1a1ae6b2c0c7
1,     620544,     620544,     2048,     8192, 12636795c076e4b16e7e2b532f32ae1b
0,        352,        352,        1,   345600, 55cee0ed83ad9c87404268a432430aab
1,     622592,     622592,     2048,     8192, 87cea049edcec507fd2124271ca9766c
0,        353,        353,        1,   345600, f6d666eb1f5ebb7dca9bce2526a14848
0,        354,        354,        1,   345600, a834a265e4e668613bc04a2278d0e6dc
1,     624640,     624640,     2048,     8192, 5e303515262e3893e24301d79f328432
0,        355,        355,        1,   345600, 01b3343c2efb793b47d4a07586472369
1,     626688,     626688,     2048,     8192, 70a6a04162477ac8d6662b7fc48be945
0,        356,        356,        1,   345600, 55cee0ed83ad9c87404268a432430aab
1,     628736,     628736,     2048,     8192, bc8caa46c00746df00bd8f7876db6090
0,        357,        357,        1,   345600, cdfe8ba9b1938026ec3d3b267e82a733
1,     630784,     630784,     2048,     8192, 2d8c989a27c3b02fb3a0d44d8ba031fe
0,        358,        358,        1,   345600, 33ffb30ff3ab55364e1ede5f9ff3117f
1,     632832,     632832,     2048,     8192, 9ad8618390daf005af40965fb2150fec
0,        359,        359,        1,   345600, 9f3caf4bc546def3f7f3733151824e2d
1,     634880,     634880,     2048,     8192, 33804a19794f738d59db05a1e6de51f7
0,        360,        360,        1,   345600, 549780b51c4ab1ce637fd54a9bedf8a7
0,        361,        361,        1,   345600, f19bb9ff84a72d271fe4ce76f481d7ea
1,     636928,     636928,     2048,     8192, e2e9fdca2dd3e912e31a13ffb6d85a40
0,        362,        362,        1,   345600, f6d666eb1f5ebb7dca9bce2526a14848
1,     638976,     638976,     2048,     8192, 7c6c72b73a3c87f0e451599739ddac6c
0,        363,        363,        1,   345600, 5eddf42c3fe19984ea3471e61ef06b7a
1,     641024,     641024,     2048,     8192, 26ad067ecf26abd8b75c723ca2fc5918
0,        364,        364,        1,   345600, cebb5a9104902eff2144424351e0db7e
1,     643072,     643072,     2048,     8192, 4dd991b3729168c6a1dd4bfe2a511abd
0,        365,        365,        1,   345600, 385d7393d7ce7fc180db269b7bca899e
1,     645120,     645120,     2048,     8192, be290a97dab1e375fa5c8a66add4c39f
0,        366,        366,        1,   345600, f7f01736be785f907c35bc9a2c341df5
1,     647168,     647168,     2048,     8192, 7503049b64ead9b4dd84b6d8f0cc670c
0,        367,        367,        1,   345600, 2a8035f8d6540ccec36e49538aaffd81
0,        368,        368,        1,   345600, 9b621da7ad6f7efe58d114bf57479527
1,     649216,     649216,     2048,     8192, 7bf58abdb4cdb95f3b69e0e4247dd5b2
0,        369,        369,        1,   345600, 57879473330fd7340460c7c41a2ff344
1,     651264,     651264,     2048,     8192, 6814ebaa1edac9981e3f2160d18ab692
0,        370,        370,        1,   345600, 5f97c71e5ad01b1a78a9e2e3aac77554
1,     653312,     653312,     2048,     8192, f6eead0054d9a3bb08b055103c78eeef
0,        371,        371,        1,   345600, f96150463c1705abf1619bb70a6884ae
1,     655360,     655360,     2048,     8192, 3c43ce8a6a756c340aeaca69c07fa422
0,        372,        372,        1,   345600, 393561d5884f4df84644c887d01f98d9
1,     657408,     657408,     2048,     8192, 55814a9c760b9aae4692ae471fe152d2
0,        373,        373,        1,   345600, 3e0a635eb55d42eeb4202d6c9cf50921
1,     659456,     659456,     2048,     8192, d13785ab2ecb97a89b74c7fe67cfc0b5
0,        374,        374,        1,   345600, c890387d7f1a4f4bdf9344cc1a12524b
0,        375,        375,        1,   345600, 806aa8ad68896b2914b271f8073a8019
1,     661504,     661504,     2048,     8192, b8fb5eda0469a121123b9b79e7f4fa46
0,        376,        376,        1,   345600, 4f02001ee25bb7448700c4afc6f085f0
1,     663552,     663552,     2048,     8192, ce29963a59bd6ee194a861f6c5407a6c
0,        377,        377,        1,   345600, 729bec6feb88620dec64861832b47d0c
1,     665600,     665600,     2048,     8192, 3c12a9fa69df340a9e0f01e2437a293c
0,        378,        378,        1,   345600, 6c18f28cbf5e2c9708236ef6f0b124d9
1,     667648,     667648,     2048,     8192, e003f726627ad0088927ee5b0496d977
0,        379,        379,        1,   345600, ed0c177393f89609cc2f3a77c4f01f1a
1,     669696,     669696,     2048,     8192, 7c85d7129ffc152db2781e1061f19903
0,        380,        380,        1,   345600, 3c2f17129989c1a13179c9ebf5e4e6e3
1,     671744,     671744,     2048,     8192, 9641cfc72b026dadefef31ea4e3c2c9c
0,        381,        381,        1,   345600, f5ed8fd237032beb3a4ff7f25704f1dd
1,     673792,     673792,     2048,     8192, f22f196319ea27ce0108924298a1b362
0,        382,        382,        1,   345600, d07daa0359c0e232e7bf3c7dec7feeb3
0,        383,        383,        1,   345600, 9ae3b330766035ae8b4c16718b539629
1,     675840,     675840,     2048,     8192, 546d821ef6d98c0e58190fed2d7a8522
0,        384,        384,        1,   345600, 2043a509fdd0e5bcd9230fcd71df9424
1,     677888,     677888,     2048,     8192, 9dc35c5f4fb85ad8eedf01712e2e73a0
0,        385,        385,        1,   345600, 69c2e7122a404fc5da2cef793f3ed674
1,     679936,     679936,     2048,     8192, 323ceb5bce9eda2fd6f94b0cb5f3c015
0,        386,        386,        1,   345600, 57b70d99c472124b69a63f2fd924ce59
1,     681984,     681984,     2048,     8192, 122601e1defc2aa3ecda76bfa27f53b8
0,        387,        387,        1,   345600, 8189e505d66f60436b5279210d3b5731
1,     684032,     684032,     2048,     8192, 5924b0c8a0495dd6ebb43da6647771ac
0,        388,        388,        1,   345600, b5bc3546ae9ddf53cadc0568a596aa79
1,     686080,     686080,     2048,     8192, fe59efd7214236effe7aaac386ccfc2f
0,        389,        389,        1,   345600, 59700b95ea90fa390c9ab32e02e8c020
0,        390,        390,        1,   345600, 91eefd69b2ad3ac4bd64250904d86102
1,     688128,     688128,     2048,     8192, dc7c2058e7f3c9a4ee9aa78e67ed9778
0,        391,        391,        1,   345600, 82b83e36ba01bbafd3e6ac896d4ae483
1,     690176,     690176,     2048,     8192, 02d7e21ffd5c9f58a781beb73684e254
0,        392,        392,        1,   345600, 53630c439c9c3795a73d9dbffd965b2f
1,     692224,     692224,     2048,     8192, 1f1568473fda0f5a260b5201c4fd710a
0,        393,        393,        1,   345600, 949079f76a4a255ff792a7c0d30d9608
1,     694272,     694272,     2048,     8192, 3db4ec8490778c277e2698749f48a086
0,        394,        394,        1,   345600, 895bbdb81cd2fab9b0e98b274c020151
1,     696320,     696320,     2048,     8192, b4101ea944314f4aef7af036c923eb63
0,        395,        395,        1,   345600, 3ecd60d586105d117e3068d73f36659f
1,     698368,     698368,     2048,     8192, 96486593d72c2bf81501eb834cdb0ab3
0,        396,        396,        1,   345600, 60ce8fd5282e4b3046808e5e546506e5
0,        397,        397,        1,   345600, 2601146919d492728d25ba07542e8c94
1,     700416,     700416,     2048,     8192, 54c0dd47e77405ff29f2ee25a48c8346
0,        398,        398,        1,   345600, 53907d96e904d6f6f53124b99c0e3c12
1,     702464,     702464,     2048,     8192, 09ac6bb4a2ac620f78688c5d83fb1435
0,        399,        399,        1,   345600, 20cacfa5f3e053c851214095abf2a459
1,     704512,     704512,     2048,     8192, bda1b6b050775467b6e996f48cb86f3a
0,        400,        400,        1,   345600, 6ca3fd3c6faac74dba5786e22e202bdb
1,     706560,     706560,     2048,     8192, b5ae8e799519dfd6eafcb372b98cc883
0,        401,        401,        1,   345600, bc28a2a01aaae4ee13eb12847554fa03
1,     708608,     708608,     2048,     8192, 879c532e3dd42f97b5a1bc1248ff8769
0,        402,        402,        1,   345600, 53907d96e904d6f6f53124b99c0e3c12
1,     710656,     710656,     2048,     8192, 923a740f7865cb359768da9a7789bc0b
0,        403,        403,        1,   345600, 949079f76a4a255ff792a7c0d30d9608
0,        404,        404,        1,   345600, fc47268412b9e8ffb25c836b72966279
1,     712704,     712704,     2048,     8192, 6d9788d51a407dced9edb8e93fcabcad
0,        405,        405,        1,   345600, 05f0d9eba0d1d4442c1918c7b08bbd75
1,     714752,     714752,     2048,     8192, 58b79f160f971dffadddfcd7f5e6bec3
0,        406,        406,        1,   345600, 7d543b4237e8838af565e91d7d8cf391
1,     716800,     716800,     2048,     8192, fd7358a6a1c9c239a063374357f8457b
0,        407,        407,        1,   345600, a7916c07ed410dd4b4499e032ab008d2
1,     718848,     718848,     2048,     8192, 3cc4502e537493bbf96bdad8e0287a47
0,        408,        408,        1,   345600, fc47268412b9e8ffb25c836b72966279
1,     720896,     720896,     2048,     8192, 69a590352a0b0c367317cc602f63fe9e
0,        409,        409,        1,   345600, 20cacfa5f3e053c851214095abf2a459
1,     722944,     722944,     2048,     8192, dc33a1788ed8d7dedacd45901329aef2
0,        410,        410,        1,   345600, 97ecf5526f04188497d530074e15e354
1,     724992,     724992,     2048,     8192, 038273fd7bfa317433f0922941949241
0,        411,        411,        1,   345600, d26e6d2c317faf2c8be5a5c8a72da2f5
0,        412,        412,        1,   345600, 25b8dc79313d24d71e6f2807cd316339
1,     727040,     727040,     2048,     8192, 7e6dfd09d71a46af93b96b5b6ef93414
0,        413,        413,        1,   345600, d915c2240fb9a9d8cbdc9eca8575e77a
1,     729088,     729088,     2048,     8192, bcd0a7119b2b7e4414dc065337cb60fe
0,        414,        414,        1,   345600, 05f0d9eba0d1d4442c1918c7b08bbd75
1,     731136,     731136,     2048,     8192, 67cbfc50e92f4eafc64b5917b42b9ff1
0,        415,        415,        1,   345600, e9b882e923c1c0ddd9c0bbd6f93e74cd
1,     733184,     733184,     2048,     8192, 479c51871b6a61ac594b2642d2d2439f
0,        416,        416,        1,   345600, fc173b7f108ff2843a44243acc945352
1,     735232,     735232,     2048,     8192, ee5defaf09957689d7504815ecb5cdf0
0,        417,        417,        1,   345600, f1c222a55b26bf88dab51b81774e1bae
1,     737280,     737280,     2048,     8192, c756a05314e150099948e25c40ecd64c
0,        418,        418,        1,   345600, e9c211b0aad9e679f4413839f2a65475
0,        419,        419,        1,   345600, e9b882e923c1c0ddd9c0bbd6f93e74cd
1,     739328,     739328,     2048,     8192, 1a9fcaa37849e7e381f337051b2097ed
0,        420,        420,        1,   345600, 97ecf5526f04188497d530074e15e354
1,     741376,     741376,     2048,     8192, d53ca6d7104ad71c34981018a33e0492
0,        421,        421,        1,   345600, 5abd4f86deefb44131df1e0cd0b7e87c
1,     743424,     743424,     2048,     8192, 9d8846b9d51dd421fe2e6e8ad95cc210
0,        422,        422,        1,   345600, 71415d0ae12d722aa83cf0c9e2e878d6
1,     745472,     745472,     2048,     8192, 5770efafe568c9e8f19b607ee7c9ab19
0,        423,        423,        1,   345600, fc173b7f108ff2843a44243acc945352
1,     747520,     747520,     2048,     8192, 80b3e72a9f720829e4d10092fcf51507
0,        424,        424,        1,   345600, f1bc1ba2d39781f4b3af2e96f5e7eeec
1,     749568,     749568,     2048,     8192, 520c6e7a6c5a621ff43b9072488cb609
0,        425,        425,        1,   345600, 8dcc38d9b51761b7debfa5a20b2b73d2
0,        426,        426,        1,   345600, d491bfcbe2a86e0501cee97b85cd531d
1,     751616,     751616,     2048,     8192, bce2869f40310e7cd6e880cfca42f2ff
0,        427,        427,        1,   345600, 72e74c48aa8f6155628db2828f643e6f
1,     753664,     753664,     2048,     8192, a18173265272d2f36a34cdb16bc9c07c
0,        428,        428,        1,   345600, 16f02cb3f4f13c5a493c1e41b9119905
1,     755712,     755712,     2048,     8192, 8daf18ecdf8e30c850422e786ee50e6f
0,        429,        429,        1,   345600, c386f5197db73b197a5e5eb12935ef02
1,     757760,     757760,     2048,     8192, e9411f6f6094b7179cad24f14cdf46ff
0,        430,        430,        1,   345600, e21ec768f96582f56eb5cc395fff13ff
1,     759808,     759808,     2048,     8192, d9fa4d4ca883c523caa52c9baec66299
0,        431,        431,        1,   345600, 87eb8351bfd1ca978c50e1c8cb9e1bc2
1,     761856,     761856,     2048,     8192, 06d5162f8b2bf1742d13056f0c11a399
0,        432,        432,        1,   345600, 1315f4d9058d2a3e3e9bab3b6ac0711a
0,        433,        433,        1,   345600, 6c4682b30db81cd7bf6a99e5c6935374
1,     763904,     763904,     2048,     8192, a8266f4832b8b84e5d850ad75e35f3e6
0,        434,        434,        1,   345600, 5fa5773df14faaeac259e5a58f2ae5f9
1,     765952,     765952,     2048,     8192, 819d3bfd8df4ae4b7bb62741d3364308
0,        435,        435,        1,   345600, 87eb8351bfd1ca978c50e1c8cb9e1bc2
1,     768000,     768000,     2048,     8192, bf16de289115d26bb5f2bd5721635836
0,        436,        436,        1,   345600, b0900ca491d90920f30cb936f280a981
1,     770048,     770048,     2048,     8192, 91a60607cc0924e6de4822da082a3e49
0,        437,        437,        1,   345600, 1a794a16b082b045f9ea882d84d7a5fc
1,     772096,     772096,     2048,     8192, f324b2be0f7541ebddbc9a2461b43713
0,        438,        438,        1,   345600, d9b7b4496d85d520490b15bde8282bea
1,     774144,     774144,     2048,     8192, 28f8f6ca95d81ee8189c4e677f590079
0,        439,        439,        1,   345600, e9e668910c2e7316f25b4c60e928fc37
0,        440,        440,        1,   345600, 2dabb2e42d2a2332a5e617ccb064e2ef
1,     776192,     776192,     2048,     8192, 52023649e3028cce1ea1609821d1e10c
0,        441,        441,        1,   345600, 1a794a16b082b045f9ea882d84d7a5fc
1,     778240,     778240,     2048,     8192, 2e8f31d1a070634364793311f511886d
0,        442,        442,        1,   345600, 1315f4d9058d2a3e3e9bab3b6ac0711a
1,     780288,     780288,     2048,     8192, 32d00e998284ba0f62dc6f732eb573da
0,        443,        443,        1,   345600, e59162d30c42587238a2239416ca06e9
1,     782336,     782336,     2048,     8192, 06133733e1cee8751e612b43d954f49b
0,        444,        444,        1,   345600, ca2578d97a13a890abe0ff7132530cd8
1,     784384,     784384,     2048,     8192, db33fc8b8fc83966636e4bf84fa0a146
0,        445,        445,        1,   345600, 849110b7674c88597003efc22f8be1ea
1,     786432,     786432,     2048,     8192, 5139ff55f2fc7a54789899a3b171f12e
0,        446,        446,        1,   345600, 5c20c950fa1c2bfd013fa683b7f2f979
1,     788480,     788480,     2048,     8192, 67289ffa4008367b2c8bdf24e9c301e6
0,        447,        447,        1,   345600, e59162d30c42587238a2239416ca06e9
0,        448,        448,        1,   345600, d9b7b4496d85d520490b15bde8282bea
1,     790528,     790528,     2048,     8192, b8cec1fea311005a5da46d58c30b1a71
0,        449,        449,        1,   345600, 5585154fc70c75f2a01a856b1a73fb4f
1,     792576,     792576,     2048,     8192, 742956c06c5e1f9a3f11612e02099bac
0,        450,        450,        1,   345600, 3d13619992ce00e09b65302d40dfc084
1,     794624,     794624,     2048,     8192, 6f09aef20c8587089994d001ec148d19
0,        451,        451,        1,   345600, 657041b4525d2fbc91e8d903aee6fbf0
1,     796672,     796672,     2048,     8192, 657cc8bcd3a9a356b51c3e2eb1793222
0,        452,        452,        1,   345600, 79c72037fdcee8c04cdedd6559d31ea9
1,     798720,     798720,     2048,     8192, 40f13157a788ff141ee7fdbe3143e853
0,        453,        453,        1,   345600, 5585154fc70c75f2a01a856b1a73fb4f
1,     800768,     800768,     2048,     8192, 091430bd74a1aa7e78349834b7eee973
0,        454,        454,        1,   345600, ca2578d97a13a890abe0ff7132530cd8
0,        455,        455,        1,   345600, 6a240f4faa326a88275b1ca259140618
1,     802816,     802816,     2048,     8192, 3fd4ddb0d369583ebb2141a438490d43
0,        456,        456,        1,   345600, ac7ab75da4211fc2fcb21728b30c141f
1,     804864,     804864,     2048,     8192, 741172cb832b9a9eb74dc1c2b1016f38
0,        457,        457,        1,   345600, 7299de106a8ba72905de571862b210e3
1,     806912,     806912,     2048,     8192, fd203b1a52bff602e6fd83532550fea4
0,        458,        458,        1,   345600, 94f314aec81d80114bee54ef248fea24
1,     808960,     808960,     2048,     8192, b64072f1526e8ea2370bf0a5c6bfb205
0,        459,        459,        1,   345600, 61d17862783d89c399d1f17cf5979cc1
1,     811008,     811008,     2048,     8192, 8cb765580e7cb84203846142a659d836
0,        460,        460,        1,   345600, 0dd99f4650d97163a23c00fcbd2f1377
1,     813056,     813056,     2048,     8192, 3102712e1642f25407ce30f5011865ce
0,        461,        461,        1,   345600, c2bc98457aaa1d42cdc63830e88cf589
0,        462,        462,        1,   345600, cb39f45682f60e88ac43c0d0eb1ff154
1,     815104,     815104,     2048,     8192, cdbed15812efb2dc5e2d6dc37a7dbe4e
0,        463,        463,        1,   345600, db9a46287f12e31728bd27a83a434723
1,     817152,     817152,     2048,     8192, c0e93b9a135124685c76c82386630998
0,        464,        464,        1,   345600, 189336b11fd889d3b21eb7e9fe14fdc0
1,     819200,     819200,     2048,     8192, 258a9afae5a8ad51133cffb837298de6
0,        465,        465,        1,   345600, c2bc98457aaa1d42cdc63830e88cf589
1,     821248,     821248,     2048,     8192, 7d40c952ae54662661d52aef19e8e776
0,        466,        466,        1,   345600, 091c1ea0a312572b7600f99956d79cd5
1,     823296,     823296,     2048,     8192, 04be6a43da8e5c017b0859ae512d5ae2
0,        467,        467,        1,   345600, fcb3c85600b768d87fe8f1aaee0c4dbe
1,     825344,     825344,     2048,     8192, 4b23dca35f1edbab198eb45fee6c5b55
0,        468,        468,        1,   345600, d48e24b3ed94f1a57dc7c6b1708f66e0
0,        469,        469,        1,   345600, bf0359c7ae0f4c69c5942db29715fc67
1,     827392,     827392,     2048,     8192, 7bb041b41d5ac047aba11ea295709a1d
0,        470,        470,        1,   345600, 03db03b9a09ca60c1cd3189db825d5e1
1,     829440,     829440,     2048,     8192, ce1dee381346cd6872f6de7187876f75
0,        471,        471,        1,   345600, 6c7239df730ee92795d31d2877530dcc
1,     831488,     831488,     2048,     8192, 42e0a4461d3327417b8c0a723b5f9207
0,        472,        472,        1,   345600, 7a8ad1a39a17937b68ebeb55b4ad4586
1,     833536,     833536,     2048,     8192, b35164520e77e598940901a49de7516b
0,        473,        473,        1,   345600, 0785db60e62c13d7f543972e783aa6f2
1,     835584,     835584,     2048,     8192, 9154680b03185e1cbc5241b3c0e0f001
0,        474,        474,        1,   345600, 1fdc87c9caeb1f6640430aaa11a67617
1,     837632,     837632,     2048,     8192, 82cf222c901976ebe21e76a8035b802b
0,        475,        475,        1,   345600, 1659a7cfaec31d762f6e5348587858fe
0,        476,        476,        1,   345600, bcd1d64604fde2a4884435b87e3fe9e2
1,     839680,     839680,     2048,     8192, 77a56dd0b5f2d30bf34480ae0c3e8b99
0,        477,        477,        1,   345600, 0785db60e62c13d7f543972e783aa6f2
1,     841728,     841728,     2048,     8192, 01f1635b9e339ee835f64871d8474869
0,        478,        478,        1,   345600, ccaf76c849dee53ad1f1bbf6288c6fc2
1,     843776,     843776,     2048,     8192, 67c2f674efea78376a90f252ce3576ed
0,        479,        479,        1,   345600, eb5ad0ea096389589910468a131d6794
1,     845824,     845824,     2048,     8192, eafc612cd3a1aa375bc3046eb90e92bb
0,        480,        480,        1,   345600, 4237b8892717beb69f9f0b060918196f
1,     847872,     847872,     2048,     8192, 3d52e36dbb775c909c334ba93bed0d69
0,        481,        481,        1,   345600, 46ec29279413ca26e6996a07c0180ce4
1,     849920,     849920,     2048,     8192, 75dcb9f0d7a1f919b1fd6fb5fdb9cfc8
0,        482,        482,        1,   345600, 6b053b78dc802ac847a4e8454836ab9f
1,     851968,     851968,     2048,     8192, 788ef64e11a12e4b0e84921f7c217c1e
0,        483,        483,        1,   345600, eb5ad0ea096389589910468a131d6794
0,        484,        484,        1,   345600, 4237b8892717beb69f9f0b060918196f
1,     854016,     854016,     2048,     8192, ffdf85c0e9d54d1e4605fb8d3c8d0741
0,        485,        485,        1,   345600, ad1255cee3203a5eed2dfe09fcd0f9d6
1,     856064,     856064,     2048,     8192, dcf1db6044e20bf7dafbfb2287820dce
0,        486,        486,        1,   345600, c889730aca7d46ac64f87f89cfbc1668
1,     858112,     858112,     2048,     8192, 0e611757aa2a7a5b9d8866d56bcbcf14
0,        487,        487,        1,   345600, 9b7e619f2c19aafc476824cc45549bb1
1,     860160,     860160,     2048,     8192, b54d4270e96bebc44cae8e7517a664b8
0,        488,        488,        1,   345600, 860cd79ead8f032ffe7bc7aba986db79
1,     862208,     862208,     2048,     8192, bda9b7859e03547b4f33d25300cf2acd
0,        489,        489,        1,   345600, 8792c7bf38552d4cadcf01656ac25cac
1,     864256,     864256,     2048,     8192, 2b752dd71e5f310fea52f16ba3c7fcd9
0,        490,        490,        1,   345600, 6bd87d231781139074a1fbca3db8de7d
0,        491,        491,        1,   345600, b36cebaf8dd767ebb98bf4f0e2a29389
1,     866304,     866304,     2048,     8192, 8194025f53547c4f985bc7b782308df9
0,        492,        492,        1,   345600, 38f00ff9085e3946222ca141f1512e19
1,     868352,     868352,     2048,     8192, 587b9840e5c2c883b84f93b5cda10d0f
0,        493,        493,        1,   345600, 55ce4deb5e75cd6ff800c972ba37ffb2
1,     870400,     870400,     2048,     8192, 67e55b7ca4840c9d829e24b1a808c8d8
0,        494,        494,        1,   345600, 2e59f2301324dba93856f16e61050610
1,     872448,     872448,     2048,     8192, c02650197974f1da9008b5cd16ff658d
0,        495,        495,        1,   345600, 3e623268927bcbe08c0f6843c1ffc40e
1,     874496,     874496,     2048,     8192, 0d7a86af2ed6782ee774ecd90311de98
0,        496,        496,        1,   345600, ef3aef5c8843140ffd9f1387367565ac
1,     876544,     876544,     2048,     8192, 7a975049bc5facd1b0b8c90c313714ca
0,        497,        497,        1,   345600, d60753c344a153cca45d1d9ae3052f06
0,        498,        498,        1,   345600, 2e59f2301324dba93856f16e61050610
1,     878592,     878592,     2048,     8192, 7bd4652bf3fab108bffb1085e97a76d8
0,        499,        499,        1,   345600, 3e623268927bcbe08c0f6843c1ffc40e
1,     880640,     880640,     1360,     5440, 1f25a41d696379273466170be0d4bdfa
